<svg width="1406" height="441" viewBox="0 0 1406 441" fill="none" xmlns="http://www.w3.org/2000/svg">
<rect opacity="0.283158" y="0.330078" width="1406" height="440" fill="#F3F3F3"/>
<path d="M678 252C671.92 252 667 247.08 667 241V199C667 192.92 671.92 188 678 188H728C734.08 188 739 192.92 739 199V241C739 247.08 734.08 252 728 252H678V252ZM673 231.76L681.88 224.8C682.56 224.28 683.28 224 684.04 224C684.8 224 685.56 224.28 686.2 224.8L696.64 233.24L714.08 218.8C714.76 218.24 715.48 218 716.24 218C717 218 717.76 218.28 718.4 218.8L733 230.48V199C733 196.24 730.76 194 728 194H678C675.24 194 673 196.24 673 199V231.76V231.76ZM695 220C689.48 220 685 215.52 685 210C685 204.48 689.48 200 695 200C700.52 200 705 204.48 705 210C705 215.52 700.52 220 695 220ZM695 214C697.2 214 699 212.2 699 210C699 207.8 697.2 206 695 206C692.8 206 691 207.8 691 210C691 212.2 692.8 214 695 214ZM678 246H728C730.76 246 733 243.76 733 241V239.64C733 238.68 732.6 237.84 731.84 237.24L716.24 224.76L698.8 239.24C698.16 239.76 697.4 240 696.64 240C695.88 240 695.16 239.8 694.48 239.24L684.04 230.76L674.16 238.52C673.4 239.12 673 239.96 673 240.92V241C673 243.76 675.24 246 678 246V246Z" fill="#ABACAD"/>
</svg>