<?xml version="1.0" encoding="utf-8"?>
<!-- Generator: Adobe Illustrator 25.2.3, SVG Export Plug-In . SVG Version: 6.00 Build 0)  -->
<svg version="1.1" xmlns="http://www.w3.org/2000/svg" xmlns:xlink="http://www.w3.org/1999/xlink" x="0px" y="0px"
	 viewBox="0 0 718 400" style="enable-background:new 0 0 718 400;" xml:space="preserve">
<style type="text/css">
	.st0{fill:none;stroke:#E5E9E9;stroke-width:3;stroke-linecap:round;}
	.st1{fill:none;stroke:#DBDBDB;stroke-width:3;stroke-linecap:round;}
	.st2{fill:none;stroke:#D4D4D4;stroke-width:3;stroke-linecap:round;stroke-linejoin:round;}
	.st3{fill-rule:evenodd;clip-rule:evenodd;fill:#D4D4D4;}
	.st4{fill-rule:evenodd;clip-rule:evenodd;fill:#DBDBDB;}
	.st5{fill:none;stroke:#B0B1B1;stroke-width:3;stroke-linecap:round;stroke-linejoin:round;}
	.st6{fill:none;stroke:#B0B1B1;stroke-width:3;stroke-linecap:round;}
	.st7{fill-rule:evenodd;clip-rule:evenodd;fill:#E5E9E9;}
	.st8{fill:none;stroke:#B0B1B1;stroke-width:3;}
	.st9{fill:#DBDBDB;}
	.st10{fill:none;stroke:#DBDBDB;stroke-width:3;stroke-linecap:round;stroke-linejoin:round;stroke-dasharray:135,1,1,18;}
	.st11{fill:none;stroke:#DBDBDB;stroke-width:3;stroke-linecap:round;stroke-linejoin:round;stroke-dasharray:107,10;}
	.st12{fill-rule:evenodd;clip-rule:evenodd;fill:#FFFFFF;}
	.st13{fill:#FFFFFF;}
</style>
<g id="Background_1_">
	<path class="st0" d="M159,171.5h19c0,0-1.1-8.1,5.4-13.6c5-4.1,10.9-3.2,14-1.8c3.2,1.4,5.5,3.3,7.2,7c0,0,1,2.3,1.4,3.9"/>
	<path class="st0" d="M198,174.5c0,0,1.6-5.5,6.5-7.2c4.9-1.7,9.6,0.6,11.4,2.8c1.9,2.3,2.5,4.1,2.8,6c0.4,1.9,0.3,4.4,0.3,4.4
		s6.2-0.3,8.3,2.5c1.7,2.2,1.9,4.8,1.3,6.8c-0.6,1.9-2.7,4.8-6.6,4.8h-79"/>
	<path class="st0" d="M133,181.5h65"/>
	<path class="st0" d="M115,181.5h8"/>
	<path class="st1" d="M425,202.5h19c0,0-1.1-8.1,5.4-13.6c5-4.1,10.9-3.2,14-1.8c3.2,1.4,5.5,3.3,7.1,7c0,0,1,2.3,1.4,3.9"/>
	<path class="st1" d="M464,205.5c0,0,1.6-5.5,6.5-7.2c4.9-1.7,9.6,0.6,11.4,2.8c1.9,2.3,2.5,4.1,2.8,6c0.4,1.9,0.3,4.4,0.3,4.4
		s6.2-0.3,8.3,2.5c1.7,2.2,1.9,4.8,1.3,6.8c-0.6,1.9-2.7,4.8-6.6,4.8h-79"/>
	<path class="st1" d="M399,212.5h65"/>
	<path class="st1" d="M381,212.5h8"/>
	<path class="st2" d="M366,284l-96.5-97l-71,69"/>
	<path class="st2" d="M221,233l-22.5-21L125,286"/>
	<path class="st3" d="M215,214c0.3-0.9,1.6-0.9,1.9,0l6.1,20l-4.6-3l-7-5.8L215,214z"/>
	<path class="st4" d="M207,297c-2.7-6.5-9-11-16.3-11c-2,0-3.9,0.3-5.8,1c-3.4-5.3-9.3-8.8-16-8.8c-6.4,0-12.1,3.2-15.5,8.1
		c-1.4-0.8-3-1.3-4.7-1.3c-1.5,0-2.9,0.4-4.2,1c-3.4-8.9-11.9-15.2-21.8-15.2c-9.1,0-17,5.3-20.9,13.1c-2.3-1.1-4.9-1.7-7.6-1.7
		c-8.7,0-15.9,6.4-17.5,14.8H207L207,297z"/>
	<path class="st1" d="M66,295.5h130"/>
	<path class="st4" d="M516.7,297H351.4c-0.1-0.7-0.1-1.5-0.1-2.2c0-13.5,10.8-24.4,24.1-24.4c3.7,0,7.1,0.8,10.2,2.3
		c5.3-10.4,16-17.6,28.3-17.6c13.4,0,24.9,8.5,29.6,20.4c1.7-0.9,3.6-1.4,5.7-1.4c2.3,0,4.5,0.6,6.4,1.7c4.7-6.6,12.4-10.9,21-10.9
		c12.7,0,23.3,9.3,25.5,21.5c0.7-0.1,1.3-0.2,2-0.2C510.4,286.4,515.6,291,516.7,297L516.7,297z"/>
	<path class="st1" d="M384,295.5h141"/>
	<path class="st1" d="M531,295.5h14"/>
	<path class="st4" d="M485.6,235.5c0.6-1.9,3.3-1.9,3.8,0l14.3,49.5c0.4,1.3-0.6,2.6-1.9,2.6h-28.7c-1.3,0-2.3-1.3-1.9-2.6
		L485.6,235.5z"/>
	<path class="st5" d="M487.5,233.8l17,53.7h-34L487.5,233.8z"/>
	<path class="st6" d="M487.5,238.2c0,0,0,57.5,0,58.8C487.5,295.7,487.5,238.2,487.5,238.2z"/>
	<path class="st5" d="M495.5,262.8c0,0-8,9.7-8,10C487.5,272.5,495.5,262.8,495.5,262.8z"/>
	<path class="st7" d="M454.6,200.5l25.2,84.4c0.4,1.3-0.6,2.6-1.9,2.6h-46.6c-1.3,0-2.3-1.3-1.9-2.6L454.6,200.5z"/>
	<path class="st5" d="M454.5,200.5l26,87h-52L454.5,200.5z"/>
	<path class="st6" d="M454.5,204.1c0,0,0,90.7,0,92.9C454.5,294.7,454.5,204.1,454.5,204.1z"/>
	<path class="st5" d="M443.6,242.5c0,0,11,10.6,11,11C454.6,253.1,443.6,242.5,443.6,242.5z"/>
	<path class="st5" d="M455.6,268.5c0,0,14-16.4,14-16C469.6,252.1,455.6,268.5,455.6,268.5z"/>
	<path class="st4" d="M138.6,236.5c0.6-1.9,3.3-1.9,3.8,0l14.3,49.5c0.4,1.3-0.6,2.6-1.9,2.6h-28.7c-1.3,0-2.3-1.3-1.9-2.6
		L138.6,236.5z"/>
	<path class="st5" d="M140.5,234.8l17,53.7h-34L140.5,234.8z"/>
	<path class="st8" d="M140.5,238.8c0,0,0,56.9,0,58.2C140.5,295.7,140.5,238.8,140.5,238.8z"/>
	<path class="st5" d="M150.5,266.8c0,0-10,10.7-10,11C140.5,277.5,150.5,266.8,150.5,266.8z"/>
	<circle class="st9" cx="350" cy="145" r="23"/>
	<circle class="st10" cx="350" cy="145" r="45"/>
	<circle class="st11" cx="350" cy="145" r="33"/>
	<circle class="st8" cx="350" cy="145" r="23"/>
</g>
<g id="Car">
	<g>
		<path class="st4" d="M168.9,302.6l11.1-15.3l51.9-0.6c0,0,2.7-0.2,3.3,0.8c0.7,1,0.9,8.1,0.9,8.1v7.7L168.9,302.6z"/>
		<path class="st12" d="M152.7,303.1c0,0-2.8,2.2-3.6,3.6c-0.8,1.4-1.2,4.6-1.2,4.6l0.4,10.9c0,0,88.1,1.1,88.1,0.6
			c0-0.6-0.8-19.9-0.8-19.9L152.7,303.1z"/>
		<ellipse class="st13" cx="220" cy="323.9" rx="11" ry="11.1"/>
		<ellipse class="st13" cx="166" cy="323.9" rx="11" ry="11.1"/>
		<path class="st5" d="M147.5,322.4v-11.6c0-3.6,2.2-7.5,9.4-7.5h11.9l7.5-11.9c1.6-2.6,4.5-4.2,7.6-4.2h46.5c3.3,0,6,2.7,6,6v29.2
			h-5.6c0.1,0.5,0.1,1,0.1,1.5c0,6.1-4.9,11.1-11,11.1s-11-5-11-11.1c0-0.5,0-1,0.1-1.5h-32.2c0.1,0.5,0.1,1,0.1,1.5
			c0,6.1-4.9,11.1-11,11.1s-11-5-11-11.1c0-0.5,0-1,0.1-1.5H147.5z"/>
		<ellipse class="st5" cx="220" cy="323.9" rx="11" ry="11.1"/>
		<ellipse class="st5" cx="166" cy="323.9" rx="11" ry="11.1"/>
		<path class="st6" d="M143,322.4h12"/>
		<path class="st6" d="M242.5,297.8v15.1"/>
		<path class="st6" d="M201.5,288.7v13.1"/>
		<path class="st6" d="M169,303.3h8.7h57.8"/>
		<path class="st4" d="M260,268.6l-1.8,8.8v26.9h65.7l-2.9,5.4h32.8l-0.6-25.3l-5.8-12.1l-13.8-6.8c0,0-24.6-0.6-45.8-0.6
			C266.6,265,260,268.6,260,268.6z"/>
		<path class="st9" d="M287.5,255h23c1.1,0,2,0.9,2,2v6.1c0,1.1-0.9,2-2,2h-23c-1.1,0-2-0.9-2-2V257
			C285.5,255.9,286.4,255,287.5,255z"/>
		<path class="st12" d="M257.6,305.1h66.5l-3,4.7l32.5,1l-3.5,8.3l-8.4,3l-73.7,0.6l-10.4-0.6V305.1z"/>
		<ellipse class="st13" cx="323" cy="323.9" rx="11" ry="11.1"/>
		<path class="st12" d="M258.5,275.5c0,0,5.1-6.8,10.3-6.8s61.4,0,61.4,0s14.8,1,22.1,15.4c7.3,14.4-3.2-10.2-3.2-10.2
			s-5.5-5.4-5.7-5.5c-0.2-0.1-10.8-3.8-10.8-3.8h-17.4h-46.8l-6.7,2.2l-3.3,3.7V275.5z"/>
		<path class="st5" d="M341.5,322.4c6.6,0,12-5.4,12-12.1v-21.1c0-13.3-10.7-24.1-24-24.1h-60c-6.6,0-12,5.4-12,12.1v45.3h54.6
			c-0.1,0.5-0.1,1-0.1,1.5c0,6.1,4.9,11.1,11,11.1s11-5,11-11.1c0-0.5,0-1-0.1-1.5H341.5z"/>
		<path class="st8" d="M285.5,257c0-1.1,0.9-2,2-2h23c1.1,0,2,0.9,2,2v8.1h-27V257z"/>
		<path class="st8" d="M272.5,279.2h22c0.6,0,1,0.4,1,1v41.3c0,0.6-0.4,1-1,1h-22c-0.6,0-1-0.4-1-1v-41.3
			C271.5,279.6,271.9,279.2,272.5,279.2z"/>
		<path class="st8" d="M309.5,279.2h28c0.6,0,1,0.4,1,1v13.1c0,0.6-0.4,1-1,1h-28c-0.6,0-1-0.4-1-1v-13.1
			C308.5,279.6,308.9,279.2,309.5,279.2z"/>
		<path class="st8" d="M258,304.3h66.5l-4.5,6h33.5"/>
		<path class="st8" d="M338,322.4H233"/>
		<path class="st5" d="M227,252.5l-8,18.1"/>
		<ellipse class="st8" cx="195" cy="274.6" rx="11" ry="11.1"/>
		<ellipse class="st8" cx="223" cy="274.6" rx="11" ry="11.1"/>
		<path class="st5" d="M195.6,251.5h8.4l-9,23.1"/>
		<path class="st5" d="M223,257.5h-20l20,17.1"/>
	</g>
	<g>
		<g>
			<path class="st4" d="M405.9,302.8l11.1-15.2L469,287c0,0,2.7-0.2,3.3,0.8c0.7,1,0.9,8,0.9,8v7.7L405.9,302.8z"/>
			<path class="st12" d="M389.7,303.3c0,0-2.8,2.2-3.6,3.6c-0.8,1.4-1.2,4.6-1.2,4.6l0.4,10.9c0,0,88.1,1.1,88.1,0.5
				c0-0.5-0.8-19.8-0.8-19.8L389.7,303.3z"/>
			<circle class="st13" cx="457" cy="324" r="11"/>
			<circle class="st13" cx="403" cy="324" r="11"/>
			<path class="st5" d="M384.5,322.5V311c0-3.6,2.2-7.5,9.4-7.5h11.9l7.5-11.8c1.6-2.6,4.5-4.2,7.6-4.2h46.5c3.3,0,6,2.7,6,6v29
				h-5.6c0.1,0.5,0.1,1,0.1,1.5c0,6.1-4.9,11-11,11s-11-4.9-11-11c0-0.5,0-1,0.1-1.5h-32.2c0.1,0.5,0.1,1,0.1,1.5
				c0,6.1-4.9,11-11,11s-11-4.9-11-11c0-0.5,0-1,0.1-1.5H384.5z"/>
			<circle class="st5" cx="457" cy="324" r="11"/>
			<circle class="st5" cx="403" cy="324" r="11"/>
			<path class="st6" d="M380,322.5h12"/>
			<path class="st6" d="M479.5,298v15"/>
			<path class="st6" d="M438.5,289v13"/>
			<path class="st6" d="M406,303.5h8.7h57.8"/>
		</g>
		<g>
			<path class="st4" d="M497,269l-1.8,8.8v26.8h65.7l-2.9,5.4h32.8l-0.6-25.1l-5.8-12l-13.8-6.8c0,0-24.6-0.6-45.8-0.6
				C503.6,265.4,497,269,497,269z"/>
			<path class="st9" d="M524.5,255.5h23c1.1,0,2,0.9,2,2v6c0,1.1-0.9,2-2,2h-23c-1.1,0-2-0.9-2-2v-6
				C522.5,256.4,523.4,255.5,524.5,255.5z"/>
			<path class="st12" d="M494.6,305.3h66.5l-3,4.6l32.5,1l-3.5,8.2l-8.4,3l-73.7,0.6l-10.4-0.6V305.3z"/>
			<circle class="st13" cx="560" cy="324" r="11"/>
			<path class="st12" d="M495.5,275.8c0,0,5.1-6.8,10.3-6.8s61.4,0,61.4,0s14.8,0.9,22.1,15.3c7.3,14.3-3.2-10.1-3.2-10.1
				s-5.5-5.4-5.7-5.5c-0.2-0.1-10.8-3.7-10.8-3.7h-17.4h-46.8l-6.7,2.2l-3.3,3.7V275.8z"/>
			<path class="st5" d="M578.5,322.5c6.6,0,12-5.4,12-12v-21c0-13.3-10.7-24-24-24h-60c-6.6,0-12,5.4-12,12v45h54.6
				c-0.1,0.5-0.1,1-0.1,1.5c0,6.1,4.9,11,11,11s11-4.9,11-11c0-0.5,0-1-0.1-1.5H578.5z"/>
			<path class="st8" d="M522.5,257.5c0-1.1,0.9-2,2-2h23c1.1,0,2,0.9,2,2v8h-27V257.5z"/>
			<path class="st8" d="M509.5,279.5h22c0.6,0,1,0.4,1,1v41c0,0.6-0.4,1-1,1h-22c-0.6,0-1-0.4-1-1v-41
				C508.5,279.9,508.9,279.5,509.5,279.5z"/>
			<path class="st8" d="M546.5,279.5h28c0.6,0,1,0.4,1,1v13c0,0.6-0.4,1-1,1h-28c-0.6,0-1-0.4-1-1v-13
				C545.5,279.9,545.9,279.5,546.5,279.5z"/>
			<path class="st8" d="M495,304.5h66.5l-4.5,6h33.5"/>
			<path class="st8" d="M575,322.5H470"/>
		</g>
	</g>
	<g>
		<path class="st4" d="M642.9,302.8l11.1-15.2L706,287c0,0,2.7-0.2,3.3,0.8c0.7,1,0.9,8,0.9,8v7.7L642.9,302.8z"/>
		<path class="st12" d="M626.7,303.3c0,0-2.8,2.2-3.6,3.6c-0.8,1.4-1.2,4.6-1.2,4.6l0.4,10.9c0,0,88.1,1.1,88.1,0.5
			c0-0.5-0.8-19.8-0.8-19.8L626.7,303.3z"/>
		<circle class="st13" cx="694" cy="324" r="11"/>
		<circle class="st13" cx="640" cy="324" r="11"/>
		<path class="st5" d="M621.5,322.5V311c0-3.6,2.2-7.5,9.4-7.5h11.9l7.5-11.8c1.7-2.6,4.5-4.2,7.6-4.2h46.5c3.3,0,6,2.7,6,6v29h-5.6
			c0.1,0.5,0.1,1,0.1,1.5c0,6.1-4.9,11-11,11s-11-4.9-11-11c0-0.5,0-1,0.1-1.5h-32.2c0.1,0.5,0.1,1,0.1,1.5c0,6.1-4.9,11-11,11
			s-11-4.9-11-11c0-0.5,0-1,0.1-1.5H621.5z"/>
		<circle class="st5" cx="694" cy="324" r="11"/>
		<circle class="st5" cx="640" cy="324" r="11"/>
		<path class="st6" d="M617,322.5h12"/>
		<path class="st6" d="M716.5,298v15"/>
		<path class="st6" d="M675.5,289v13"/>
		<path class="st6" d="M643,303.5h8.7h57.8"/>
	</g>
	<g>
		<path class="st4" d="M43.9,302.8l11.1-15.2L107,287c0,0,2.7-0.2,3.3,0.8c0.7,1,0.9,8,0.9,8v7.7L43.9,302.8z"/>
		<path class="st12" d="M27.7,303.3c0,0-2.8,2.2-3.6,3.6c-0.8,1.4-1.2,4.6-1.2,4.6l0.4,10.9c0,0,88.1,1.1,88.1,0.5
			c0-0.5-0.8-19.8-0.8-19.8L27.7,303.3z"/>
		<circle class="st13" cx="95" cy="324" r="11"/>
		<circle class="st13" cx="41" cy="324" r="11"/>
		<path class="st5" d="M22.5,322.5V311c0-3.6,2.2-7.5,9.4-7.5h11.9l7.5-11.8c1.6-2.6,4.5-4.2,7.6-4.2h46.5c3.3,0,6,2.7,6,6v29h-5.6
			c0.1,0.5,0.1,1,0.1,1.5c0,6.1-4.9,11-11,11c-6.1,0-11-4.9-11-11c0-0.5,0-1,0.1-1.5H51.9c0.1,0.5,0.1,1,0.1,1.5c0,6.1-4.9,11-11,11
			s-11-4.9-11-11c0-0.5,0-1,0.1-1.5H22.5z"/>
		<circle class="st5" cx="95" cy="324" r="11"/>
		<circle class="st5" cx="41" cy="324" r="11"/>
		<path class="st6" d="M18,322.5h12"/>
		<path class="st6" d="M117.5,298v15"/>
		<path class="st6" d="M76.5,289v13"/>
		<path class="st6" d="M44,303.5h8.7h57.8"/>
	</g>
</g>
</svg>